<?xml version="1.0" standalone="no"?>
<!DOCTYPE svg PUBLIC "-//W3C//DTD SVG 20010904//EN"
 "http://www.w3.org/TR/2001/REC-SVG-20010904/DTD/svg10.dtd">
<svg version="1.0" xmlns="http://www.w3.org/2000/svg"
 width="16.000000pt" height="16.000000pt" viewBox="0 0 16.000000 16.000000"
 preserveAspectRatio="xMidYMid meet">
<metadata>
Created by potrace 1.11, written by Peter Selinger 2001-2013
</metadata>
<g transform="translate(0.000000,16.000000) scale(0.001754,-0.001754)"
fill="#000000" stroke="none">
<path d="M5811 7795 c0 -350 3 -455 12 -456 66 -3 298 -1 303 3 3 4 6 208 6
455 l0 448 -161 3 -160 2 0 -455z"/>
<path d="M8170 7681 c-8 -8 -44 -49 -79 -91 -63 -73 -98 -113 -133 -151 -10
-11 -18 -23 -18 -28 0 -5 -4 -11 -8 -13 -5 -1 -40 -39 -78 -83 -38 -44 -73
-85 -79 -91 -5 -7 -30 -36 -55 -65 -25 -29 -57 -66 -73 -82 -15 -16 -32 -38
-38 -49 -12 -23 -11 -25 111 -128 36 -30 74 -63 84 -72 20 -18 46 -24 46 -10
0 4 22 30 48 58 26 29 63 71 81 94 19 23 41 49 49 57 8 8 30 33 49 56 40 47
118 139 148 173 11 12 38 44 60 70 22 26 47 55 55 64 42 44 80 92 80 99 0 5
-53 53 -118 108 -106 90 -119 98 -132 84z"/>
<path d="M3777 7319 l-108 -111 320 -320 319 -319 111 111 c97 97 110 114 99
128 -30 38 -617 622 -625 622 -4 -1 -57 -51 -116 -111z"/>
<path d="M5797 6704 c-1 -1 -36 -5 -77 -8 -191 -16 -393 -62 -516 -118 -22
-10 -43 -18 -47 -18 -12 0 -160 -74 -233 -118 -71 -41 -205 -137 -266 -190
-48 -41 -208 -205 -208 -213 0 -4 35 -37 78 -75 42 -38 93 -83 112 -101 19
-18 38 -33 42 -33 5 0 18 12 31 26 75 88 218 212 327 282 67 42 237 132 251
132 6 0 25 6 42 14 95 41 251 79 379 91 51 5 250 5 293 0 333 -39 636 -186
846 -410 71 -75 109 -119 109 -127 0 -4 6 -13 14 -21 21 -20 88 -133 120 -202
33 -68 92 -240 100 -288 28 -160 34 -217 34 -322 0 -107 -8 -201 -23 -271 -3
-13 -7 -36 -10 -51 -31 -157 -144 -424 -224 -529 -9 -12 -23 -32 -31 -44 -8
-12 -23 -32 -34 -43 -10 -12 -25 -32 -34 -45 -17 -26 -29 -14 146 -155 l84
-68 27 30 c60 70 232 338 237 370 0 3 11 29 23 56 55 120 121 332 134 435 3
19 6 35 7 35 6 0 14 158 14 285 0 195 -5 241 -44 410 -25 104 -24 103 -50 170
-12 30 -24 64 -27 75 -3 11 -10 26 -16 33 -5 6 -6 12 -1 12 5 0 4 4 -1 8 -6 4
-21 32 -35 62 -14 30 -35 69 -47 87 -12 18 -20 33 -18 33 8 0 -93 138 -149
205 -105 125 -221 228 -361 321 -141 94 -366 193 -495 218 -8 2 -22 6 -30 9
-28 12 -194 37 -280 43 -95 7 -190 10 -193 8z"/>
<path d="M3787 5763 c-1 -1 -58 -4 -125 -8 -68 -4 -132 -8 -141 -10 -10 -2
-42 -6 -71 -10 -29 -4 -62 -9 -74 -11 -12 -2 -37 -7 -56 -10 -57 -9 -270 -70
-337 -97 -35 -14 -63 -22 -63 -19 0 4 -4 3 -8 -3 -4 -5 -36 -23 -72 -40 -167
-77 -407 -236 -519 -343 -10 -9 -44 -42 -77 -73 -112 -106 -234 -245 -335
-383 -21 -28 -42 -56 -47 -62 -5 -5 -15 -21 -22 -35 -7 -13 -19 -31 -26 -39
-20 -22 -84 -120 -78 -120 3 0 -1 -7 -9 -15 -9 -8 -17 -19 -19 -24 -1 -5 -16
-11 -33 -14 -30 -5 -80 -13 -125 -21 -135 -25 -370 -106 -513 -177 -104 -53
-229 -132 -331 -211 -105 -81 -283 -263 -334 -340 -9 -14 -37 -54 -62 -89 -68
-97 -138 -225 -184 -339 -15 -36 -31 -74 -37 -85 -6 -12 -11 -27 -12 -35 -2
-8 -5 -19 -8 -25 -4 -5 -10 -28 -14 -50 -5 -22 -9 -42 -10 -45 -3 -11 -19 -96
-22 -120 -9 -58 -11 -365 -2 -387 6 -16 5 -22 -1 -18 -6 4 -7 -2 -1 -18 5 -13
12 -44 14 -68 15 -136 86 -373 158 -526 21 -46 39 -85 39 -87 0 -19 153 -261
214 -341 66 -84 186 -210 291 -303 33 -30 247 -173 265 -178 3 0 25 -10 50
-22 46 -21 151 -63 160 -64 3 0 10 -2 15 -3 29 -9 64 -17 95 -23 57 -11 4391
0 4490 12 345 40 673 202 914 450 96 99 214 256 247 329 7 15 16 27 21 27 4 0
8 8 8 17 0 9 6 24 13 32 20 24 104 222 113 267 10 47 9 45 17 64 3 8 15 71 25
140 16 98 19 163 16 305 -1 99 -5 192 -8 207 -2 16 -7 47 -11 70 -18 110 -71
298 -107 378 -94 209 -176 329 -319 470 -92 91 -106 102 -269 210 -47 31 -195
98 -288 130 -73 26 -93 37 -96 54 -27 140 -80 316 -129 426 -14 30 -25 57 -25
60 0 3 -12 28 -27 55 -15 28 -43 79 -63 115 -33 61 -163 261 -186 287 -6 6
-22 26 -36 44 -31 40 -100 118 -160 180 -99 101 -302 268 -327 269 -7 0 -13 5
-13 10 0 6 -7 10 -15 10 -8 0 -15 3 -15 8 0 4 -15 13 -32 21 -18 8 -35 17 -38
21 -12 15 -168 83 -263 114 -109 37 -176 52 -272 61 -33 3 -71 8 -85 9 -14 2
-56 7 -95 10 -38 4 -90 9 -115 11 -80 8 -399 22 -403 18z m20 -326 c32 1 60 2
63 3 6 2 18 2 150 -4 52 -2 120 -7 150 -10 30 -3 82 -8 115 -11 33 -4 71 -8
85 -10 14 -2 54 -7 90 -10 36 -4 90 -13 120 -21 30 -8 62 -17 70 -19 8 -2 16
-4 18 -5 1 -2 6 -3 11 -4 5 0 13 -4 17 -8 4 -5 16 -8 26 -8 10 0 18 -4 18 -10
0 -5 3 -9 8 -8 11 4 152 -65 152 -74 0 -4 5 -8 11 -8 14 0 91 -53 174 -121
238 -194 452 -481 573 -770 60 -144 52 -121 86 -249 14 -52 28 -131 32 -175 4
-44 8 -93 9 -110 2 -16 3 -35 4 -41 1 -5 45 -21 99 -33 53 -13 104 -25 112
-28 8 -2 16 -4 17 -4 20 4 297 -121 321 -145 7 -8 17 -14 22 -14 5 0 15 -6 22
-13 7 -7 23 -20 36 -29 39 -27 125 -110 172 -168 25 -30 50 -58 55 -62 7 -5 7
-8 0 -8 -6 0 -5 -4 1 -8 30 -19 113 -187 153 -310 32 -97 37 -121 60 -272 9
-62 7 -346 -3 -400 -3 -14 -10 -52 -16 -85 -37 -196 -185 -466 -342 -625 -64
-64 -128 -120 -139 -120 -5 0 -9 -4 -9 -10 0 -5 -5 -10 -10 -10 -6 0 -21 -9
-33 -20 -47 -44 -302 -156 -397 -174 -14 -3 -36 -7 -50 -11 -14 -3 -45 -8 -70
-11 -59 -7 -1094 -13 -2935 -16 l-1490 -3 -70 24 c-257 88 -506 296 -676 566
-24 39 -50 80 -57 90 -38 59 -128 268 -158 365 -4 14 -9 30 -11 35 -2 6 -15
62 -29 125 -43 195 -40 479 8 630 6 19 13 40 17 45 3 6 6 15 7 21 1 7 18 46
38 89 20 42 36 78 36 81 0 2 22 41 49 86 221 374 576 638 1005 748 126 32 203
44 346 54 19 2 37 22 88 106 76 125 188 295 208 314 8 8 14 19 14 24 0 6 3 12
8 14 4 2 34 37 67 78 134 168 346 363 510 468 142 92 326 177 445 207 3 0 21
6 40 13 83 28 262 57 414 67 37 2 71 7 74 10 4 3 8 3 9 -2 2 -4 29 -7 60 -6z"/>
<path d="M8227 5265 c-2 -5 -3 -77 -2 -160 l0 -150 445 0 445 0 0 160 0 160
-442 0 c-290 0 -444 -3 -446 -10z"/>
<path d="M7618 3483 l-113 -113 320 -320 319 -320 113 113 113 112 -319 321
-320 320 -113 -113z"/>
</g>
</svg>
